<svg width="500" height="710" viewBox="0 0 500 710" fill="none" xmlns="http://www.w3.org/2000/svg">
<path d="M0 710.001L81.9701 627.379H418.029L499.999 710.001H0Z" fill="url(#paint0_linear_274_134)"/>
<path d="M0 0.00244474L83.1055 81.4954L83.1055 628.508L0 710.001L0 0.00244474Z" fill="url(#paint1_linear_274_134)"/>
<path d="M499.999 8.27357e-05L418.029 82.6218L81.9701 82.6218L0 8.27357e-05L499.999 8.27357e-05Z" fill="url(#paint2_linear_274_134)"/>
<path d="M500 710.001L416.895 628.508L416.895 81.4954L500 0.00244474L500 710.001Z" fill="url(#paint3_linear_274_134)"/>
<defs>
<linearGradient id="paint0_linear_274_134" x1="1257.85" y1="429.437" x2="1257.85" y2="710.001" gradientUnits="userSpaceOnUse">
<stop stop-color="#480C00"/>
<stop offset="0.69328" stop-color="#743800"/>
<stop offset="0.7657" stop-color="#ECD450"/>
<stop offset="0.91558" stop-color="#A06400"/>
<stop offset="0.96003" stop-color="#E8CC48"/>
<stop offset="1" stop-color="#480C00"/>
</linearGradient>
<linearGradient id="paint1_linear_274_134" x1="282.222" y1="157.354" x2="-0.000437366" y2="157.354" gradientUnits="userSpaceOnUse">
<stop stop-color="#480C00"/>
<stop offset="0.69328" stop-color="#743800"/>
<stop offset="0.7657" stop-color="#ECD450"/>
<stop offset="0.91558" stop-color="#A06400"/>
<stop offset="0.96003" stop-color="#E8CC48"/>
<stop offset="1" stop-color="#480C00"/>
</linearGradient>
<linearGradient id="paint2_linear_274_134" x1="1257.85" y1="280.582" x2="1257.85" y2="8.39233e-05" gradientUnits="userSpaceOnUse">
<stop stop-color="#480C00"/>
<stop offset="0.69328" stop-color="#743800"/>
<stop offset="0.7657" stop-color="#ECD450"/>
<stop offset="0.91558" stop-color="#A06400"/>
<stop offset="0.96003" stop-color="#E8CC48"/>
<stop offset="1" stop-color="#480C00"/>
</linearGradient>
<linearGradient id="paint3_linear_274_134" x1="217.778" y1="765.577" x2="500" y2="765.577" gradientUnits="userSpaceOnUse">
<stop stop-color="#480C00"/>
<stop offset="0.69328" stop-color="#743800"/>
<stop offset="0.7657" stop-color="#ECD450"/>
<stop offset="0.91558" stop-color="#A06400"/>
<stop offset="0.96003" stop-color="#E8CC48"/>
<stop offset="1" stop-color="#480C00"/>
</linearGradient>
</defs>
</svg>
